%
M48
M72
T01C0.02362
T02C0.02400
T03C0.03200
T04C0.03400
T05C0.04000
T06C0.04400
T07C0.04700
T08C0.05118
T09C0.12598
%
T01
X56000Y101000
X126000Y91000
X181000Y126000
X216000Y146000
X246000Y176000
X216000Y186000
X171000Y191000
X136000Y221000
X126000Y196000
X66000Y191000
X66000Y171000
X26000Y201000
X16000Y191000
X146000Y251000
X246000Y226000
X356000Y236000
X356000Y206000
X356000Y166000
X356000Y121000
X356000Y81000
X251000Y26000
X246000Y31000
X241000Y41000
X231000Y46000
T02
X186000Y36000
X186000Y56000
T03
X156000Y56000
X146000Y56000
X146000Y36000
X156000Y36000
X231000Y56000
X231000Y66000
X231000Y76000
X231000Y86000
X231000Y96000
X231000Y106000
X231000Y116000
X231000Y126000
X231000Y136000
X231000Y146000
X231000Y156000
X231000Y166000
X231000Y176000
X231000Y186000
X261000Y186000
X261000Y176000
X261000Y166000
X261000Y156000
X261000Y146000
X261000Y136000
X261000Y126000
X261000Y116000
X261000Y106000
X261000Y96000
X261000Y86000
X261000Y76000
X261000Y66000
X261000Y56000
X326000Y71000
X326000Y101000
X326000Y111000
X326000Y141000
X326000Y156000
X326000Y186000
X326000Y196000
X326000Y226000
X286000Y171000
X286000Y161000
X206000Y126000
X206000Y116000
X171000Y116000
X171000Y106000
X171000Y126000
X171000Y136000
X171000Y146000
X171000Y156000
X171000Y166000
X171000Y176000
X141000Y176000
X141000Y166000
X141000Y156000
X141000Y146000
X141000Y136000
X141000Y126000
X141000Y116000
X141000Y106000
X116000Y116000
X116000Y126000
X116000Y136000
X116000Y146000
X116000Y156000
X116000Y166000
X116000Y176000
X116000Y186000
X86000Y186000
X86000Y176000
X86000Y166000
X86000Y156000
X86000Y146000
X86000Y136000
X86000Y126000
X86000Y116000
X186000Y216000
X161000Y226000
X161000Y236000
X186000Y246000
X216000Y241000
X226000Y241000
X226000Y276000
X216000Y276000
X236000Y296000
X266000Y296000
X126000Y251000
X126000Y221000
T04
X56000Y181000
X56000Y171000
X56000Y161000
X56000Y151000
X56000Y141000
X56000Y131000
X26000Y131000
X26000Y141000
X26000Y151000
X26000Y161000
X26000Y171000
X26000Y181000
T05
X266000Y251000
X266000Y261000
X266000Y271000
X343200Y224900
X343200Y207100
X343200Y184900
X343200Y167100
X368800Y167100
X368800Y184900
X368800Y207100
X368800Y224900
X368800Y139900
X368800Y122100
X368800Y99900
X368800Y82100
X343200Y82100
X343200Y99900
X343200Y122100
X343200Y139900
X326000Y36000
X296000Y36000
T06
X181000Y286000
X166000Y286000
X151000Y286000
T07
X116000Y278500
X96000Y278500
T08
X101000Y248795
X101000Y223205
T09
X21000Y21000
X21000Y296000
X376000Y296000
X376000Y21000
M30
